<svg clip-rule="evenodd" fill-rule="evenodd" viewBox="0 0 625 500" xmlns="http://www.w3.org/2000/svg" xmlns:xlink="http://www.w3.org/1999/xlink"><clipPath id="a"><path clip-rule="evenodd" d="m616.667 70.833c0 34.495-28.005 62.5-62.5 62.5h-483.333c-34.495 0-62.5-28.005-62.5-62.5s28.005-62.5 62.5-62.5h483.333c34.495 0 62.5 28.005 62.5 62.5z"/></clipPath><clipPath id="b"><path clip-rule="evenodd" d="m616.667 250c0 34.495-28.005 62.5-62.5 62.5h-483.333c-34.495 0-62.5-28.005-62.5-62.5s28.005-62.5 62.5-62.5h483.333c34.495 0 62.5 28.005 62.5 62.5z"/></clipPath><clipPath id="c"><path clip-rule="evenodd" d="m616.667 429.167c0 34.495-28.005 62.5-62.5 62.5h-483.333c-34.495 0-62.5-28.005-62.5-62.5s28.005-62.5 62.5-62.5h483.333c34.495 0 62.5 28.005 62.5 62.5z"/></clipPath><path d="m616.667 70.833c0 34.495-28.005 62.5-62.5 62.5h-483.333c-34.495 0-62.5-28.005-62.5-62.5s28.005-62.5 62.5-62.5h483.333c34.495 0 62.5 28.005 62.5 62.5z" fill="#fff" stroke="#1e3a5f" stroke-width="16.67"/><g clip-path="url(#a)"><g fill="none"><path d="m47.917 70.833h41.667" stroke="#e53935" stroke-linecap="round" stroke-width="30.68"/><path d="m231.192 70.833h41.667" stroke="#e53935" stroke-linecap="round" stroke-width="30.68"/><path d="m139.554 70.833h41.667" stroke="#e53935" stroke-linecap="round" stroke-width="30.68"/><path d="m322.829 70.833h41.667" stroke="#e53935" stroke-linecap="round" stroke-width="30.68"/><path d="m414.467 70.833h41.667" stroke="#e53935" stroke-linecap="round" stroke-width="30.68"/></g><circle cx="541.667" cy="70.833" fill="#e53935" r="45.833"/><path d="m518.75 47.917 45.833 45.833" fill="none" stroke="#fff" stroke-linecap="round" stroke-width="11.46"/><path d="m564.583 47.917-45.833 45.833" fill="none" stroke="#fff" stroke-linecap="round" stroke-width="11.46"/></g><path d="m616.667 250c0 34.495-28.005 62.5-62.5 62.5h-483.333c-34.495 0-62.5-28.005-62.5-62.5s28.005-62.5 62.5-62.5h483.333c34.495 0 62.5 28.005 62.5 62.5z" fill="#fff" stroke="#1e3a5f" stroke-width="16.67"/><g clip-path="url(#b)"><path d="m48.9 250c45.248-41.667 90.496-41.667 135.745 0 45.248 41.667 90.496 41.667 135.745 0 45.248-41.667 90.496-41.667 135.745 0" fill="none" stroke="#ff9800" stroke-linecap="round" stroke-width="30.45"/><path d="m541.667 207.955 41.667 75.758h-83.333l41.667-75.758z" fill="#ff9800"/><g stroke="#fff" stroke-linecap="round" stroke-linejoin="round" stroke-miterlimit="1.5" stroke-width="12.5"><path d="m541.667 232.576v22.727" fill="none"/><path d="m541.667 272.001c0-5.682 0 0 0 0z" fill="#fff"/></g></g><path d="m616.667 429.167c0 34.495-28.005 62.5-62.5 62.5h-483.333c-34.495 0-62.5-28.005-62.5-62.5s28.005-62.5 62.5-62.5h483.333c34.495 0 62.5 28.005 62.5 62.5z" fill="#fff" stroke="#1e3a5f" stroke-width="16.67"/><g clip-path="url(#c)"><path d="m66.667 462.5c-18.397 0-33.333-14.936-33.333-33.333s14.936-33.333 33.333-33.333h370.833c18.397 0 33.333 14.936 33.333 33.333s-14.936 33.333-33.333 33.333z" fill="#4caf50"/><circle cx="541.667" cy="429.167" fill="#4caf50" r="45.833"/><path d="m517.188 429.167 16.319 16.319 32.639-32.639" fill="none" stroke="#fff" stroke-linecap="round" stroke-linejoin="round" stroke-width="9.79"/></g></svg>